<svg width="26" height="16" viewBox="0 0 26 16" fill="none" xmlns="http://www.w3.org/2000/svg">
<path d="M1 8.00003L0.341494 7.24746C0.124479 7.43734 -3.21242e-07 7.71167 0 8.00003C3.21243e-07 8.28839 0.124481 8.56272 0.341495 8.75261L1 8.00003ZM9.65851 1.75258C10.0741 1.38889 10.1163 0.75713 9.75258 0.341494C9.38889 -0.0741421 8.75713 -0.116258 8.34149 0.247425L9.65851 1.75258ZM8.3415 15.7526C8.75713 16.1163 9.38889 16.0742 9.75258 15.6585C10.1163 15.2429 10.0741 14.6111 9.6585 14.2475L8.3415 15.7526ZM25 9.00003C25.5523 9.00003 26 8.55232 26 8.00003C26 7.44775 25.5523 7.00003 25 7.00003V9.00003ZM1.65851 8.75261L9.65851 1.75258L8.34149 0.247425L0.341494 7.24746L1.65851 8.75261ZM0.341495 8.75261L8.3415 15.7526L9.6585 14.2475L1.6585 7.24745L0.341495 8.75261ZM1 9.00003H25V7.00003H1V9.00003Z" fill="white"/>
</svg>
