<svg width="208" height="36" viewBox="0 0 208 36" fill="none" xmlns="http://www.w3.org/2000/svg">
<path fill-rule="evenodd" clip-rule="evenodd" d="M25.875 28.2083L36 36V5.33333L29.0769 0H5.53845L0 5.33333V22.875L6.75 28.2083H25.875ZM27 23.625H7.875L4.5 20.25V7.875L7.875 4.5H27L31.5 7.875V27.2583L27 23.625Z" fill="white"/>
<path d="M53.3032 3.57377C52.8672 3.11475 52.3603 2.75956 51.7826 2.5082C51.2049 2.2459 50.6109 2.11475 50.0005 2.11475C49.1939 2.11475 48.4527 2.31148 47.7769 2.70492C47.1011 3.09836 46.567 3.63388 46.1746 4.31148C45.7822 4.97814 45.586 5.71585 45.586 6.52459C45.586 7.3224 45.7822 8.06011 46.1746 8.73771C46.567 9.4153 47.1011 9.95082 47.7769 10.3443C48.4527 10.7377 49.1939 10.9344 50.0005 10.9344C50.6 10.9344 51.1886 10.8142 51.7663 10.5738C52.344 10.3224 52.8563 9.98361 53.3032 9.55738L54.2515 10.5902C53.6738 11.1585 53.0034 11.6066 52.2404 11.9344C51.4774 12.2514 50.7035 12.4098 49.9187 12.4098C48.8287 12.4098 47.8314 12.153 46.9267 11.6393C46.022 11.1148 45.308 10.4044 44.7848 9.5082C44.2616 8.61202 44 7.62295 44 6.54098C44 5.46995 44.2616 4.4918 44.7848 3.60656C45.3189 2.71038 46.0438 2.00546 46.9594 1.4918C47.875 0.978142 48.8832 0.721312 49.9841 0.721312C50.7798 0.721312 51.5483 0.874317 52.2895 1.18033C53.0416 1.47541 53.6901 1.89618 54.2351 2.44262L53.3032 3.57377Z" fill="white"/>
<path d="M59.6403 3.57377C60.5014 3.57377 61.2644 3.75956 61.9293 4.13115C62.6051 4.50273 63.1283 5.02186 63.4989 5.68853C63.8804 6.34426 64.0712 7.09836 64.0712 7.95082C64.0712 8.80328 63.8804 9.56284 63.4989 10.2295C63.1283 10.8962 62.6051 11.4153 61.9293 11.7869C61.2644 12.1585 60.5014 12.3443 59.6403 12.3443C58.7683 12.3443 57.9944 12.1585 57.3186 11.7869C56.6537 11.4153 56.1305 10.9016 55.749 10.2459C55.3784 9.57924 55.1931 8.81421 55.1931 7.95082C55.1931 7.09836 55.3784 6.34426 55.749 5.68853C56.1305 5.02186 56.6537 4.50273 57.3186 4.13115C57.9944 3.75956 58.7683 3.57377 59.6403 3.57377ZM59.6403 4.90164C59.0735 4.90164 58.5667 5.03279 58.1198 5.29508C57.6838 5.55738 57.3404 5.9235 57.0897 6.39344C56.8499 6.85246 56.73 7.37705 56.73 7.96721C56.73 8.56831 56.8499 9.10383 57.0897 9.57377C57.3404 10.0437 57.6838 10.4098 58.1198 10.6721C58.5667 10.9235 59.0735 11.0492 59.6403 11.0492C60.1962 11.0492 60.6922 10.9235 61.1282 10.6721C61.5751 10.4098 61.9184 10.0437 62.1582 9.57377C62.4089 9.10383 62.5343 8.56831 62.5343 7.96721C62.5343 7.37705 62.4089 6.85246 62.1582 6.39344C61.9184 5.9235 61.5751 5.55738 61.1282 5.29508C60.6922 5.03279 60.1962 4.90164 59.6403 4.90164Z" fill="white"/>
<path d="M71.0051 3.57377C72.0188 3.57377 72.8145 3.87432 73.3922 4.47541C73.9699 5.06558 74.2588 5.88525 74.2588 6.93443V12.2951H72.7382V7.34426C72.7382 6.61202 72.5311 6.04372 72.1169 5.63934C71.7136 5.22404 71.1523 5.01639 70.4329 5.01639C69.659 5.02732 69.0268 5.27869 68.5363 5.77049C68.0567 6.25137 67.7842 6.87978 67.7188 7.65574V12.2951H66.1982V3.62295H67.7188V5.45902C68.2965 4.22404 69.3919 3.59563 71.0051 3.57377Z" fill="white"/>
<path d="M80.1641 1.39344C79.7717 1.39344 79.4447 1.51366 79.1831 1.7541C78.9215 1.99454 78.7907 2.3388 78.7907 2.78689V3.91803H81.1778V5.08197H78.7907V12.2951H77.2701V5.08197H76.142V3.91803H77.2701V2.98361C77.2701 2.34973 77.4009 1.81421 77.6625 1.37705C77.935 0.928962 78.2893 0.595629 78.7253 0.377049C79.1613 0.147541 79.63 0.0327874 80.1314 0.0327874C80.611 0.0327874 81.1124 0.163935 81.6356 0.42623L81.2759 1.67213C80.8835 1.48634 80.5129 1.39344 80.1641 1.39344Z" fill="white"/>
<path d="M85.8707 3.57377C87.2114 3.57377 88.2251 3.97268 88.9118 4.77049C89.5985 5.55738 89.9419 6.65574 89.9419 8.06557C89.9419 8.28415 89.9364 8.44809 89.9255 8.55738H83.0912C83.2111 9.33333 83.5327 9.95082 84.0559 10.4098C84.59 10.8689 85.244 11.0984 86.0179 11.0984C86.5302 11.0984 87.0043 11.0055 87.4403 10.8197C87.8872 10.6339 88.2742 10.3716 88.6012 10.0328L89.435 10.9016C89.0099 11.3607 88.4976 11.7158 87.8981 11.9672C87.2986 12.2186 86.6337 12.3443 85.9034 12.3443C85.0532 12.3443 84.2957 12.1639 83.6308 11.8033C82.9768 11.4317 82.4645 10.9126 82.0939 10.2459C81.7342 9.57924 81.5543 8.81967 81.5543 7.96721C81.5543 7.11476 81.7342 6.36066 82.0939 5.70492C82.4645 5.03825 82.9768 4.51913 83.6308 4.14754C84.2848 3.76503 85.0314 3.57377 85.8707 3.57377ZM88.5685 7.37705C88.5249 6.59017 88.2633 5.97268 87.7837 5.52459C87.3041 5.06557 86.6719 4.83607 85.8871 4.83607C85.1241 4.83607 84.4864 5.06557 83.9741 5.52459C83.4727 5.98361 83.173 6.60109 83.0749 7.37705H88.5685Z" fill="white"/>
<path d="M93.5371 5.4918C93.8205 4.86885 94.2238 4.39891 94.747 4.08197C95.2702 3.7541 95.8915 3.5847 96.6109 3.57377V5.04918C95.728 5.01639 95.0141 5.2459 94.4691 5.73771C93.9241 6.22951 93.6134 6.89071 93.5371 7.72131V12.2951H92.0166V3.62295H93.5371V5.4918Z" fill="white"/>
<path d="M101.726 3.57377C103.066 3.57377 104.08 3.97268 104.767 4.77049C105.454 5.55738 105.797 6.65574 105.797 8.06557C105.797 8.28415 105.791 8.44809 105.781 8.55738H98.9463C99.0662 9.33333 99.3877 9.95082 99.9109 10.4098C100.445 10.8689 101.099 11.0984 101.873 11.0984C102.385 11.0984 102.859 11.0055 103.295 10.8197C103.742 10.6339 104.129 10.3716 104.456 10.0328L105.29 10.9016C104.865 11.3607 104.353 11.7158 103.753 11.9672C103.154 12.2186 102.489 12.3443 101.758 12.3443C100.908 12.3443 100.151 12.1639 99.4858 11.8033C98.8318 11.4317 98.3195 10.9126 97.9489 10.2459C97.5892 9.57924 97.4094 8.81967 97.4094 7.96721C97.4094 7.11476 97.5892 6.36066 97.9489 5.70492C98.3195 5.03825 98.8318 4.51913 99.4858 4.14754C100.14 3.76503 100.886 3.57377 101.726 3.57377ZM104.424 7.37705C104.38 6.59017 104.118 5.97268 103.639 5.52459C103.159 5.06557 102.527 4.83607 101.742 4.83607C100.979 4.83607 100.341 5.06557 99.8292 5.52459C99.3278 5.98361 99.028 6.60109 98.9299 7.37705H104.424ZM104.162 2.18033H102.641L101.644 1.08197L100.647 2.18033H99.1261L100.843 0H102.445L104.162 2.18033Z" fill="white"/>
<path d="M112.678 3.57377C113.692 3.57377 114.488 3.87432 115.066 4.47541C115.643 5.06558 115.932 5.88525 115.932 6.93443V12.2951H114.412V7.34426C114.412 6.61202 114.204 6.04372 113.79 5.63934C113.387 5.22404 112.826 5.01639 112.106 5.01639C111.332 5.02732 110.7 5.27869 110.21 5.77049C109.73 6.25137 109.458 6.87978 109.392 7.65574V12.2951H107.872V3.62295H109.392V5.45902C109.97 4.22404 111.065 3.59563 112.678 3.57377Z" fill="white"/>
<path d="M124.715 5.93443C124.028 5.26776 123.205 4.93443 122.246 4.93443C121.679 4.93443 121.173 5.06011 120.726 5.31148C120.29 5.56284 119.946 5.91803 119.696 6.37705C119.445 6.83607 119.32 7.36612 119.32 7.96721C119.32 8.56831 119.439 9.09836 119.679 9.55738C119.93 10.0164 120.268 10.3771 120.693 10.6393C121.129 10.8907 121.625 11.0164 122.181 11.0164C122.737 11.0164 123.238 10.9235 123.685 10.7377C124.132 10.5519 124.502 10.2842 124.797 9.93443L125.663 10.8197C125.271 11.3115 124.77 11.6885 124.159 11.9508C123.56 12.2131 122.878 12.3443 122.115 12.3443C121.276 12.3443 120.529 12.1585 119.875 11.7869C119.221 11.4153 118.709 10.9016 118.339 10.2459C117.979 9.57924 117.799 8.81967 117.799 7.96721C117.799 7.11476 117.979 6.35519 118.339 5.68853C118.709 5.02186 119.221 4.50273 119.875 4.13115C120.529 3.75956 121.276 3.57377 122.115 3.57377C122.846 3.57377 123.5 3.68853 124.077 3.91803C124.666 4.13661 125.157 4.45902 125.549 4.88525L124.715 5.93443Z" fill="white"/>
<path d="M127.83 3.62295H129.351V12.2951H127.83V3.62295ZM128.582 0.163935C128.855 0.163935 129.078 0.256831 129.253 0.442623C129.438 0.628416 129.531 0.863389 129.531 1.14754C129.531 1.43169 129.438 1.66667 129.253 1.85246C129.078 2.03825 128.855 2.13115 128.582 2.13115C128.31 2.13115 128.081 2.03825 127.896 1.85246C127.721 1.66667 127.634 1.43169 127.634 1.14754C127.634 0.863389 127.721 0.628416 127.896 0.442623C128.081 0.256831 128.31 0.163935 128.582 0.163935Z" fill="white"/>
<path d="M137.598 12.2951V11.082C136.955 11.9344 135.946 12.3607 134.573 12.3607C133.974 12.3607 133.445 12.2459 132.987 12.0164C132.54 11.7869 132.191 11.4699 131.941 11.0656C131.701 10.6612 131.581 10.2077 131.581 9.70492C131.581 8.92896 131.864 8.31694 132.431 7.86885C133.009 7.40984 133.81 7.17486 134.835 7.16394H137.581V6.7541C137.581 6.14208 137.391 5.67213 137.009 5.34426C136.639 5.00547 136.094 4.83607 135.374 4.83607C134.502 4.83607 133.614 5.14754 132.709 5.77049L132.072 4.72131C132.693 4.31694 133.265 4.02732 133.788 3.85246C134.322 3.66667 134.955 3.57377 135.685 3.57377C136.764 3.57377 137.598 3.84153 138.186 4.37705C138.775 4.90164 139.075 5.63935 139.086 6.59017L139.102 12.2951H137.598ZM134.884 11.0984C135.592 11.0984 136.192 10.929 136.682 10.5902C137.184 10.2404 137.483 9.78142 137.581 9.21312V8.34426H135.047C134.361 8.34426 133.848 8.44809 133.51 8.65574C133.183 8.86339 133.02 9.19126 133.02 9.63935C133.02 10.0874 133.189 10.4426 133.527 10.7049C133.865 10.9672 134.317 11.0984 134.884 11.0984Z" fill="white"/>
<path d="M53.2623 18.418C54.5866 18.418 55.7475 18.5984 56.7448 18.959C57.7422 19.3033 58.5106 19.8033 59.0502 20.459C59.5897 21.1148 59.8595 21.8852 59.8595 22.7705C59.8595 23.6393 59.5979 24.4098 59.0747 25.082C58.5515 25.7541 57.8403 26.2213 56.941 26.4836C57.9874 26.6967 58.8213 27.2049 59.4426 28.0082C60.0802 28.7951 60.3991 29.7377 60.3991 30.8361C60.3991 31.8033 60.1211 32.6557 59.5652 33.3934C59.0093 34.1148 58.2163 34.6721 57.1863 35.0656C56.1726 35.459 54.9872 35.6557 53.6302 35.6557H44.8257V18.418H53.2623ZM52.9925 25.1803C53.4994 25.1803 53.8999 25.0492 54.1942 24.7869C54.4885 24.5082 54.6357 24.1393 54.6357 23.6803C54.6357 23.2377 54.4885 22.8934 54.1942 22.6475C53.8999 22.3852 53.4994 22.2541 52.9925 22.2541H49.9024V25.1803H52.9925ZM52.9925 31.8197C53.6465 31.8361 54.1615 31.6967 54.5376 31.4016C54.93 31.1066 55.1262 30.7049 55.1262 30.1967C55.1262 29.7213 54.93 29.3525 54.5376 29.0902C54.1615 28.8115 53.6465 28.6803 52.9925 28.6967H49.9024V31.8197H52.9925Z" fill="white"/>
<path d="M70.8645 18.0984C72.6304 18.0984 74.2245 18.4836 75.6469 19.2541C77.0857 20.0246 78.2057 21.0902 79.0069 22.4508C79.8244 23.7951 80.2331 25.3115 80.2331 27C80.2331 28.7049 79.8244 30.2459 79.0069 31.623C78.2057 32.9836 77.0857 34.0574 75.6469 34.8443C74.2245 35.6148 72.6304 36 70.8645 36C69.0824 36 67.4801 35.6148 66.0576 34.8443C64.6352 34.0574 63.5152 32.9836 62.6977 31.623C61.8966 30.2459 61.496 28.7049 61.496 27C61.496 25.3115 61.8966 23.7951 62.6977 22.4508C63.5152 21.0902 64.6352 20.0246 66.0576 19.2541C67.4801 18.4836 69.0824 18.0984 70.8645 18.0984ZM70.9381 22.3525C70.186 22.3525 69.483 22.5574 68.829 22.9672C68.1913 23.3771 67.6763 23.9426 67.2839 24.6639C66.9078 25.3689 66.7198 26.1557 66.7198 27.0246C66.7198 27.8934 66.9078 28.6885 67.2839 29.4098C67.6763 30.1311 68.1913 30.7049 68.829 31.1311C69.483 31.541 70.186 31.7459 70.9381 31.7459C71.6739 31.7459 72.3524 31.541 72.9737 31.1311C73.6114 30.7049 74.11 30.1393 74.4697 29.4344C74.8294 28.7131 75.0093 27.9098 75.0093 27.0246C75.0093 26.1557 74.8294 25.3689 74.4697 24.6639C74.11 23.9426 73.6195 23.3771 72.9982 22.9672C72.3769 22.5574 71.6902 22.3525 70.9381 22.3525Z" fill="white"/>
<path d="M80.1697 18.418H95.2771V22.5H90.274V35.6557H85.1483V22.5H80.1697V18.418Z" fill="white"/>
<path d="M109.23 23.9754C108.315 23.4344 107.309 22.9754 106.214 22.5984C105.118 22.2213 104.219 22.0328 103.516 22.0328C103.074 22.0328 102.723 22.123 102.461 22.3033C102.216 22.4672 102.093 22.7131 102.093 23.041C102.093 23.5 102.339 23.8607 102.829 24.123C103.32 24.3689 104.096 24.6393 105.159 24.9344C106.369 25.2787 107.366 25.6312 108.151 25.9918C108.936 26.3361 109.614 26.8689 110.187 27.5902C110.775 28.3115 111.069 29.2623 111.069 30.4426C111.069 31.6393 110.751 32.6557 110.113 33.4918C109.492 34.3115 108.642 34.9262 107.562 35.3361C106.5 35.7459 105.306 35.9508 103.982 35.9508C102.51 35.9508 101.031 35.7049 99.5427 35.2131C98.0712 34.7049 96.7959 34.0164 95.7168 33.1475L97.6298 29.2623C98.4963 30.0164 99.5509 30.6557 100.794 31.1803C102.052 31.6885 103.132 31.9426 104.031 31.9426C104.587 31.9426 105.02 31.8361 105.331 31.623C105.641 31.4098 105.797 31.1066 105.797 30.7131C105.797 30.2377 105.543 29.877 105.036 29.6311C104.529 29.3689 103.745 29.0984 102.682 28.8197C101.488 28.5082 100.499 28.1885 99.7144 27.8607C98.9296 27.5164 98.2511 26.9918 97.6788 26.2869C97.1066 25.582 96.8205 24.6557 96.8205 23.5082C96.8205 22.3934 97.1148 21.4262 97.7034 20.6066C98.292 19.7705 99.1176 19.1311 100.18 18.6885C101.259 18.2459 102.51 18.0246 103.933 18.0246C105.224 18.0246 106.508 18.2131 107.783 18.5902C109.058 18.9508 110.17 19.4344 111.119 20.041L109.23 23.9754Z" fill="white"/>
<path d="M125.377 18.418C126.701 18.418 127.862 18.5984 128.859 18.959C129.857 19.3033 130.625 19.8033 131.165 20.459C131.704 21.1148 131.974 21.8852 131.974 22.7705C131.974 23.6393 131.712 24.4098 131.189 25.082C130.666 25.7541 129.955 26.2213 129.055 26.4836C130.102 26.6967 130.936 27.2049 131.557 28.0082C132.195 28.7951 132.513 29.7377 132.513 30.8361C132.513 31.8033 132.236 32.6557 131.68 33.3934C131.124 34.1148 130.331 34.6721 129.301 35.0656C128.287 35.459 127.102 35.6557 125.745 35.6557H116.94V18.418H125.377ZM125.107 25.1803C125.614 25.1803 126.014 25.0492 126.309 24.7869C126.603 24.5082 126.75 24.1393 126.75 23.6803C126.75 23.2377 126.603 22.8934 126.309 22.6475C126.014 22.3852 125.614 22.2541 125.107 22.2541H122.017V25.1803H125.107ZM125.107 31.8197C125.761 31.8361 126.276 31.6967 126.652 31.4016C127.044 31.1066 127.241 30.7049 127.241 30.1967C127.241 29.7213 127.044 29.3525 126.652 29.0902C126.276 28.8115 125.761 28.6803 125.107 28.6967H122.017V31.8197H125.107Z" fill="white"/>
<path d="M144.671 35.6557L142.39 31.0082H139.693V35.6557H134.591V18.418H142.611C144.916 18.418 146.699 18.9508 147.958 20.0164C149.233 21.082 149.871 22.5902 149.871 24.541C149.871 25.8033 149.617 26.9016 149.11 27.8361C148.62 28.7541 147.909 29.4836 146.977 30.0246L150.459 35.6557H144.671ZM139.693 27.0738H142.611C143.38 27.0738 143.968 26.8689 144.377 26.459C144.802 26.0492 145.015 25.459 145.015 24.6885C145.015 23.9344 144.802 23.3607 144.377 22.9672C143.968 22.5574 143.38 22.3525 142.611 22.3525H139.693V27.0738Z" fill="white"/>
<path d="M164.944 35.6557L163.938 32.9016H156.998L155.968 35.6557H150.719L158.052 18.418H163.301L170.388 35.6557H164.944ZM158.42 29.1639H162.589L160.529 23.5328L158.42 29.1639Z" fill="white"/>
<path d="M183.979 23.9754C183.063 23.4344 182.058 22.9754 180.962 22.5984C179.867 22.2213 178.968 22.0328 178.265 22.0328C177.823 22.0328 177.472 22.123 177.21 22.3033C176.965 22.4672 176.842 22.7131 176.842 23.041C176.842 23.5 177.088 23.8607 177.578 24.123C178.069 24.3689 178.845 24.6393 179.908 24.9344C181.118 25.2787 182.115 25.6312 182.9 25.9918C183.685 26.3361 184.363 26.8689 184.936 27.5902C185.524 28.3115 185.818 29.2623 185.818 30.4426C185.818 31.6393 185.5 32.6557 184.862 33.4918C184.241 34.3115 183.39 34.9262 182.311 35.3361C181.249 35.7459 180.055 35.9508 178.731 35.9508C177.259 35.9508 175.78 35.7049 174.292 35.2131C172.82 34.7049 171.545 34.0164 170.466 33.1475L172.379 29.2623C173.245 30.0164 174.3 30.6557 175.542 31.1803C176.801 31.6885 177.881 31.9426 178.78 31.9426C179.336 31.9426 179.769 31.8361 180.08 31.623C180.39 31.4098 180.546 31.1066 180.546 30.7131C180.546 30.2377 180.292 29.877 179.785 29.6311C179.278 29.3689 178.494 29.0984 177.431 28.8197C176.237 28.5082 175.248 28.1885 174.463 27.8607C173.679 27.5164 173 26.9918 172.428 26.2869C171.856 25.582 171.569 24.6557 171.569 23.5082C171.569 22.3934 171.864 21.4262 172.452 20.6066C173.041 19.7705 173.867 19.1311 174.929 18.6885C176.008 18.2459 177.259 18.0246 178.682 18.0246C179.973 18.0246 181.257 18.2131 182.532 18.5902C183.807 18.9508 184.919 19.4344 185.868 20.041L183.979 23.9754Z" fill="white"/>
<path d="M187.689 18.418H192.79V35.6557H187.689V18.418Z" fill="white"/>
<path d="M195.688 18.418H200.79V31.3771H208V35.6557H195.688V18.418Z" fill="white"/>
</svg>
